<svg xmlns:dc="http://purl.org/dc/elements/1.1/" xmlns:cc="http://creativecommons.org/ns#" xmlns:rdf="http://www.w3.org/1999/02/22-rdf-syntax-ns#" xmlns:svg="http://www.w3.org/2000/svg" xmlns="http://www.w3.org/2000/svg" xmlns:sodipodi="http://sodipodi.sourceforge.net/DTD/sodipodi-0.dtd" xmlns:inkscape="http://www.inkscape.org/namespaces/inkscape" version="1.1" x="0px" y="0px" viewBox="0 0 100 125"><g transform="translate(0,-952.36218)"><path style="text-indent:0;text-transform:none;direction:ltr;block-progression:tb;baseline-shift:baseline;color:#000000;enable-background:accumulate;" d="m 12.779718,963.39615 a 1.9985068,1.9985283 0 0 0 -1.186494,3.43463 l 35.563621,35.56402 -35.563621,35.5328 a 1.9985068,1.9985283 0 1 0 2.810119,2.8413 l 35.563621,-35.5639 35.56362,35.5639 a 1.9985068,1.9985283 0 1 0 2.810119,-2.8413 l -73.93736,-73.9382 a 1.9985068,1.9985283 0 0 0 -1.623625,-0.59325 z m 73.906137,0 a 1.9985068,1.9985283 0 0 0 -1.155271,0.59325 l -30.973759,30.97409 a 1.9985068,1.9985283 0 1 0 2.810119,2.84138 l 30.973759,-30.97409 a 1.9985068,1.9985283 0 0 0 -1.654848,-3.43463 z" fill="#000" fill-opacity="1" stroke="none" marker="none" visibility="visible" display="inline" overflow="visible"/></g></svg>
